<svg width="131" height="132" viewBox="0 0 131 132" fill="none" xmlns="http://www.w3.org/2000/svg">
<path d="M65.3506 0.525269C29.2497 0.525269 0 29.7749 0 65.8759C0 101.977 29.2497 131.227 65.3506 131.227C101.452 131.227 130.701 101.977 130.701 65.8759C130.701 29.7749 101.452 0.525269 65.3506 0.525269ZM118.053 65.8759C118.053 71.8049 117.025 77.5231 115.207 82.846H109.858C108.724 82.846 107.644 82.398 106.854 81.5811L98.4212 72.9907C97.2354 71.7785 97.2354 69.8022 98.4476 68.5901L101.741 65.2962V63.0036C101.741 62.2131 101.425 61.4489 100.872 60.8956L98.3949 58.4185C97.8415 57.8652 97.0773 57.549 96.2868 57.549H92.0706C90.4368 57.549 89.0929 56.2051 89.0929 54.5713C89.0929 53.7808 89.4091 53.0166 89.9625 52.4632L92.4395 49.9862C92.9929 49.4328 93.7571 49.1166 94.5476 49.1166H102.98C104.614 49.1166 105.958 47.7727 105.958 46.139V43.662C105.958 42.0282 104.614 40.6843 102.98 40.6843H93.3091C90.9902 40.6843 89.0929 42.5816 89.0929 44.9005V46.0863C89.0929 47.9045 87.9335 49.5119 86.2207 50.0916L77.8937 52.8585C77.0242 53.1483 76.4444 53.9389 76.4444 54.8612V55.4409C76.4444 56.6003 75.4958 57.549 74.3363 57.549H70.1202C68.9607 57.549 68.0121 56.6003 68.0121 55.4409C68.0121 54.2814 67.0635 53.3328 65.904 53.3328H65.0871C64.2966 53.3328 63.5588 53.7808 63.1898 54.4922L60.7128 59.4199C60.0014 60.8428 58.5521 61.7388 56.9446 61.7388H51.1211C48.8022 61.7388 46.9049 59.8415 46.9049 57.5226V50.8558C46.9049 49.7491 47.3529 48.6687 48.1434 47.8781L53.44 42.5816C54.6521 41.3694 55.3372 39.7093 55.3372 37.9701C55.3372 37.0742 55.917 36.2573 56.7865 35.9674L67.327 32.4628C67.7749 32.3046 68.1702 32.0675 68.4864 31.7513L75.5485 24.6892C76.1019 24.1358 76.4181 23.3716 76.4181 22.5811C76.4181 20.9473 75.0742 19.6034 73.4404 19.6034H67.9857L63.7696 23.8196V25.9277C63.7696 27.0871 62.8209 28.0358 61.6615 28.0358H57.4453C56.2859 28.0358 55.3372 27.0871 55.3372 25.9277V20.6575C55.3372 19.9987 55.6534 19.3663 56.1805 18.971L63.7959 13.2528C64.2966 13.2265 64.7973 13.1738 65.2979 13.1738C94.4159 13.1738 118.053 36.8107 118.053 65.8759ZM34.2827 37.7066C34.2827 36.9161 34.5989 36.1519 35.1523 35.5985L41.8455 28.9054C42.3989 28.352 43.163 28.0358 43.9536 28.0358C45.5873 28.0358 46.9312 29.3797 46.9312 31.0134V35.2296C46.9312 36.0201 46.615 36.7843 46.0617 37.3377L43.5847 39.8147C43.0313 40.3681 42.2671 40.6843 41.4766 40.6843H37.2604C35.6266 40.6843 34.2827 39.3404 34.2827 37.7066ZM68.0121 118.446V116.575C68.0121 114.256 66.1148 112.359 63.7959 112.359H58.473C55.6271 112.359 51.4373 110.963 49.1447 109.25L43.2948 104.849C40.2644 102.583 38.4989 99.0255 38.4989 95.2573V88.9594C38.4989 84.7433 40.7124 80.8433 44.3225 78.6825L55.6271 71.9103C57.498 70.8036 59.6325 70.1975 61.7932 70.1975H70.0148C72.887 70.1975 75.6539 71.2252 77.8147 73.0697L89.1983 82.846H94.0206C96.2604 82.846 98.3949 83.7419 99.9759 85.323L104.535 89.8817C105.431 90.7777 106.669 91.2783 107.934 91.2783H111.465C102.927 106.799 86.7477 117.498 68.0121 118.446Z" fill="url(#paint0_linear_8_953)"/>
<defs>
<linearGradient id="paint0_linear_8_953" x1="65.3506" y1="0.525269" x2="65.3506" y2="131.227" gradientUnits="userSpaceOnUse">
<stop stop-color="#F6B812"/>
<stop offset="1" stop-color="#7970AC"/>
</linearGradient>
</defs>
</svg>
