<svg version="1.1" id="Layer_1" xmlns="http://www.w3.org/2000/svg" xmlns:xlink="http://www.w3.org/1999/xlink" x="0px" y="0px"
	 width="100%" viewBox="0 0 512 512" enable-background="new 0 0 512 512" xml:space="preserve">
<path fill="#ED5434" opacity="1.000000" stroke="none" 
	d="
M513.000000,269.000000 
	C513.000000,293.687561 513.000000,318.375122 512.669922,343.619263 
	C510.784149,345.392822 509.081238,346.462433 507.694183,347.848175 
	C454.343842,401.148376 401.016296,454.471466 347.728516,507.834198 
	C346.247009,509.317780 345.232330,511.267578 344.000000,513.000000 
	C318.979095,513.000000 293.958221,513.000000 268.556580,512.669922 
	C269.627747,510.549438 270.933899,508.613678 272.553253,506.990356 
	C298.291718,481.190033 324.082184,455.441498 349.811096,429.631683 
	C351.416595,428.021149 352.611786,426.001617 354.462189,424.103638 
	C360.552582,424.025940 366.179138,424.062134 371.804474,423.994873 
	C377.090607,423.931671 378.959900,422.082764 379.050018,416.851990 
	C379.158234,410.568909 379.183929,404.284424 379.595612,397.964478 
	C382.526398,396.223053 385.483734,394.895935 387.631622,392.756256 
	C427.510132,353.030365 467.282898,313.198303 507.126404,273.437195 
	C508.846893,271.720245 511.031555,270.468475 513.000000,269.000000 
z"/>
<path fill="#EC4B3A" opacity="1.000000" stroke="none" 
	d="
M513.000000,268.531342 
	C511.031555,270.468475 508.846893,271.720245 507.126404,273.437195 
	C467.282898,313.198303 427.510132,353.030365 387.631622,392.756256 
	C385.483734,394.895935 382.526398,396.223053 379.521454,397.500916 
	C379.146576,372.715546 379.196106,348.357727 379.587494,323.961426 
	C381.910248,322.491425 384.128662,321.297913 385.837158,319.593292 
	C425.319061,280.201782 464.722626,240.731735 504.235748,201.371658 
	C506.764069,198.853149 510.060760,197.106003 513.000000,195.000000 
	C513.000000,219.354233 513.000000,243.708450 513.000000,268.531342 
z"/>
<path fill="#EA3A47" opacity="1.000000" stroke="none" 
	d="
M513.000000,67.000000 
	C513.000000,84.687561 513.000000,102.375122 512.669922,120.619278 
	C510.548065,122.629120 508.609619,123.935570 506.985840,125.557114 
	C467.151489,165.336487 427.376709,205.175552 387.474335,244.886505 
	C385.244354,247.105774 382.010925,248.316803 379.170380,249.533875 
	C379.146088,225.046997 379.195953,201.023346 379.587524,176.961029 
	C381.911865,175.489258 384.131958,174.294266 385.842133,172.588150 
	C423.946777,134.574738 461.980835,96.490570 500.095795,58.487572 
	C502.044220,56.544903 504.596283,55.207706 507.149597,53.797153 
	C508.649597,58.011513 509.817078,62.034210 511.149780,66.001389 
	C511.312805,66.486679 512.361694,66.674377 513.000000,67.000000 
z"/>
<path fill="#EB4341" opacity="1.000000" stroke="none" 
	d="
M379.244537,249.997131 
	C382.010925,248.316803 385.244354,247.105774 387.474335,244.886505 
	C427.376709,205.175552 467.151489,165.336487 506.985840,125.557114 
	C508.609619,123.935570 510.548065,122.629120 512.669922,121.087936 
	C513.000000,145.354233 513.000000,169.708450 513.000000,194.531342 
	C510.060760,197.106003 506.764069,198.853149 504.235748,201.371658 
	C464.722626,240.731735 425.319061,280.201782 385.837158,319.593292 
	C384.128662,321.297913 381.910248,322.491425 379.513184,323.497925 
	C379.146210,298.714233 379.195374,274.355682 379.244537,249.997131 
z"/>
<path fill="#AD2B6B" opacity="1.000000" stroke="none" 
	d="
M1.000003,247.000000 
	C1.000000,231.979111 1.000000,216.958206 1.357446,201.435333 
	C3.484088,199.781281 5.521927,198.898224 6.983816,197.438385 
	C70.262543,134.249344 133.497131,71.016075 196.680573,7.731769 
	C198.126678,6.283360 198.924377,4.187601 200.488129,2.328295 
	C214.994843,2.305873 229.037979,2.348955 243.019760,2.716144 
	C241.609955,4.889216 240.477127,6.953038 238.880844,8.555037 
	C213.378677,34.148552 187.800903,59.666744 162.306198,85.267662 
	C160.601868,86.979088 159.424896,89.215668 157.548889,91.334717 
	C152.306061,91.490448 147.515839,91.464233 142.728195,91.563087 
	C137.309998,91.674957 135.598282,93.329948 135.430161,98.688965 
	C135.249207,104.457474 135.206619,110.230316 134.766235,116.084503 
	C132.628540,117.602623 130.670044,118.879066 129.051163,120.495613 
	C88.312683,161.175125 47.619030,201.899551 6.869136,242.567612 
	C5.150258,244.283051 2.966956,245.533142 1.000003,247.000000 
z"/>
<path fill="#EE5D2E" opacity="1.000000" stroke="none" 
	d="
M344.468628,513.000000 
	C345.232330,511.267578 346.247009,509.317780 347.728516,507.834198 
	C401.016296,454.471466 454.343842,401.148376 507.694183,347.848175 
	C509.081238,346.462433 510.784149,345.392822 512.669922,344.087891 
	C513.000000,365.687561 513.000000,387.375122 512.669922,409.619263 
	C510.783661,411.393433 509.081085,412.464325 507.692810,413.850098 
	C476.340698,445.146240 445.012787,476.466736 413.730804,507.832947 
	C412.249512,509.318237 411.233002,511.267059 410.000000,513.000000 
	C388.312439,513.000000 366.624878,513.000000 344.468628,513.000000 
z"/>
<path fill="#B92C65" opacity="1.000000" stroke="none" 
	d="
M1.000003,247.468658 
	C2.966956,245.533142 5.150258,244.283051 6.869136,242.567612 
	C47.619030,201.899551 88.312683,161.175125 129.051163,120.495613 
	C130.670044,118.879066 132.628540,117.602623 134.881042,116.540932 
	C135.256348,136.275864 135.179428,155.637589 134.765137,175.082809 
	C132.627716,176.601624 130.669693,177.878738 129.050705,179.495392 
	C88.312363,220.174911 47.618778,260.899261 6.868985,301.567291 
	C5.150074,303.282776 2.966891,304.533020 0.999997,306.000000 
	C1.000000,286.645782 1.000000,267.291534 1.000003,247.468658 
z"/>
<path fill="#C52D5F" opacity="1.000000" stroke="none" 
	d="
M0.999997,306.468658 
	C2.966891,304.533020 5.150074,303.282776 6.868985,301.567291 
	C47.618778,260.899261 88.312363,220.174911 129.050705,179.495392 
	C130.669693,177.878738 132.627716,176.601624 134.879272,175.539597 
	C135.255173,194.608200 135.179565,213.303528 134.766479,232.082336 
	C132.629318,233.600494 130.671585,234.876816 129.053101,236.492935 
	C88.915031,276.571869 48.832092,316.706085 8.651126,356.741882 
	C6.494981,358.890259 3.568099,360.265076 1.000000,362.000000 
	C1.000000,343.645782 1.000000,325.291534 0.999997,306.468658 
z"/>
<path fill="#EB4241" opacity="1.000000" stroke="none" 
	d="
M194.000000,513.000000 
	C169.312439,513.000000 144.624878,513.000000 119.556580,512.669922 
	C120.628304,510.548767 121.935097,508.612457 123.555069,506.988525 
	C148.949707,481.531677 174.408203,456.138458 199.760254,430.639374 
	C201.540253,428.849091 202.602081,426.344818 204.462219,424.103333 
	C229.616913,424.080475 254.307266,424.126831 278.901367,424.495667 
	C276.806152,427.442566 275.073639,430.332123 272.767242,432.650726 
	C247.911346,457.637695 222.951202,482.520966 198.075699,507.488495 
	C196.480331,509.089752 195.347839,511.152161 194.000000,513.000000 
z"/>
<path fill="#EC4B3A" opacity="1.000000" stroke="none" 
	d="
M194.468658,513.000000 
	C195.347839,511.152161 196.480331,509.089752 198.075699,507.488495 
	C222.951202,482.520966 247.911346,457.637695 272.767242,432.650726 
	C275.073639,430.332123 276.806152,427.442566 279.365784,424.426575 
	C304.616882,424.080750 329.307373,424.126556 353.997833,424.172333 
	C352.611786,426.001617 351.416595,428.021149 349.811096,429.631683 
	C324.082184,455.441498 298.291718,481.190033 272.553253,506.990356 
	C270.933899,508.613678 269.627747,510.549438 268.087952,512.669922 
	C243.645767,513.000000 219.291550,513.000000 194.468658,513.000000 
z"/>
<path fill="#EA3947" opacity="1.000000" stroke="none" 
	d="
M203.997894,424.172577 
	C202.602081,426.344818 201.540253,428.849091 199.760254,430.639374 
	C174.408203,456.138458 148.949707,481.531677 123.555069,506.988525 
	C121.935097,508.612457 120.628304,510.548767 119.087921,512.669922 
	C100.979103,513.000000 82.958214,513.000000 64.779663,512.690796 
	C60.748806,510.865997 56.875603,509.350464 53.038475,507.488098 
	C54.486732,505.157227 55.653000,502.928284 57.348053,501.225861 
	C82.067757,476.398712 106.864555,451.648315 131.617188,426.853851 
	C133.249939,425.218353 134.674637,423.375122 136.525360,421.831787 
	C139.155029,422.692535 141.449890,423.898102 143.756775,423.921509 
	C163.835922,424.125458 183.917236,424.117554 203.997894,424.172577 
z"/>
<path fill="#D02E5A" opacity="1.000000" stroke="none" 
	d="
M1.000000,362.468658 
	C3.568099,360.265076 6.494981,358.890259 8.651126,356.741882 
	C48.832092,316.706085 88.915031,276.571869 129.053101,236.492935 
	C130.671585,234.876816 132.629318,233.600494 134.880981,232.539093 
	C135.257843,247.941330 135.182739,262.970337 134.769928,278.082703 
	C132.632141,279.600037 130.673584,280.875336 129.055222,282.491302 
	C88.916458,322.570801 48.832939,362.705597 8.651331,402.742004 
	C6.495179,404.890381 3.568172,406.265137 1.000000,408.000000 
	C1.000000,392.979095 1.000000,377.958221 1.000000,362.468658 
z"/>
<path fill="#D82F56" opacity="1.000000" stroke="none" 
	d="
M1.000000,408.468658 
	C3.568172,406.265137 6.495179,404.890381 8.651331,402.742004 
	C48.832939,362.705597 88.916458,322.570801 129.055222,282.491302 
	C130.673584,280.875336 132.632141,279.600037 134.883972,278.539459 
	C135.257996,292.274658 135.180237,305.636414 134.764893,319.082031 
	C132.626816,320.601990 130.668564,321.880035 129.048950,323.497253 
	C89.238831,363.248230 49.479668,403.050293 9.634807,442.766357 
	C7.847023,444.548340 5.339577,445.608307 2.966620,446.651947 
	C2.177269,446.199554 1.588635,446.099792 1.000000,446.000000 
	C1.000000,433.645782 1.000000,421.291534 1.000000,408.468658 
z"/>
<path fill="#A62B6E" opacity="1.000000" stroke="none" 
	d="
M200.024536,2.393799 
	C198.924377,4.187601 198.126678,6.283360 196.680573,7.731769 
	C133.497131,71.016075 70.262543,134.249344 6.983816,197.438385 
	C5.521927,198.898224 3.484088,199.781281 1.357446,200.966675 
	C1.000000,192.645767 1.000000,184.291534 1.357441,175.435303 
	C3.603137,173.662262 5.759582,172.659882 7.340840,171.081329 
	C62.065819,116.449554 116.740913,61.767796 171.389572,7.059676 
	C172.767548,5.680209 173.768997,3.924630 175.415283,2.291596 
	C183.931183,2.290421 191.977859,2.342111 200.024536,2.393799 
z"/>
<path fill="#EF6428" opacity="1.000000" stroke="none" 
	d="
M410.468689,513.000000 
	C411.233002,511.267059 412.249512,509.318237 413.730804,507.832947 
	C445.012787,476.466736 476.340698,445.146240 507.692810,413.850098 
	C509.081085,412.464325 510.783661,411.393433 512.669922,410.087921 
	C513.000000,422.354218 513.000000,434.708466 512.688721,447.200745 
	C511.932220,447.994934 511.256378,448.593231 511.075104,449.315643 
	C503.032349,481.363251 482.796906,501.589661 451.404144,511.089478 
	C450.798798,511.272644 450.462067,512.343384 450.000000,513.000000 
	C436.979095,513.000000 423.958221,513.000000 410.468689,513.000000 
z"/>
<path fill="#982A75" opacity="1.000000" stroke="none" 
	d="
M99.000000,0.999999 
	C108.020897,1.000000 117.041786,1.000000 126.505463,1.358205 
	C125.908966,3.366948 125.135384,5.282543 123.791748,6.629460 
	C84.734558,45.781952 45.633564,84.890816 6.462898,123.929718 
	C5.037642,125.350197 2.838488,125.994156 0.999999,127.000000 
	C1.000000,118.645767 1.000000,110.291534 1.330080,101.380714 
	C2.977986,99.844452 4.442282,99.011505 5.592238,97.863647 
	C35.111229,68.398537 64.635139,38.937984 94.013557,9.333107 
	C96.227058,7.102539 97.363098,3.802754 99.000000,0.999999 
z"/>
<path fill="#9D2A72" opacity="1.000000" stroke="none" 
	d="
M0.999999,127.468277 
	C2.838488,125.994156 5.037642,125.350197 6.462898,123.929718 
	C45.633564,84.890816 84.734558,45.781952 123.791748,6.629460 
	C125.135384,5.282543 125.908966,3.366948 126.974121,1.358205 
	C229.687561,1.000000 332.375122,1.000000 435.286591,1.341709 
	C432.329071,1.912244 429.147644,2.141071 425.503723,2.330777 
	C415.692230,2.319821 406.343201,2.347986 396.527771,2.338254 
	C382.721191,2.329831 369.381042,2.359305 355.571899,2.345859 
	C337.081146,2.333599 319.059387,2.364260 300.569427,2.344808 
	C281.094513,2.327142 262.087830,2.359590 243.081116,2.392037 
	C229.037979,2.348955 214.994843,2.305873 200.488129,2.328295 
	C191.977859,2.342111 183.931183,2.290421 174.959167,2.221127 
	C169.015961,2.247275 163.998108,2.291026 158.522888,2.264047 
	C152.031174,1.914377 147.062363,1.887569 141.764908,7.279098 
	C97.004097,52.834827 51.681641,97.838943 6.456181,142.936844 
	C5.033723,144.355286 2.836197,144.996475 1.000002,146.000000 
	C1.000000,139.978851 1.000000,133.957703 0.999999,127.468277 
z"/>
<path fill="#DA2F55" opacity="1.000000" stroke="none" 
	d="
M425.966217,2.369896 
	C429.147644,2.141071 432.329071,1.912244 435.755249,1.341709 
	C437.066681,1.000000 438.133331,1.000000 439.658752,1.385171 
	C443.744171,2.566710 447.370819,3.363076 450.902832,4.477814 
	C449.567078,6.335826 448.451965,8.000715 447.065155,9.395471 
	C435.098419,21.430771 423.065643,33.400383 411.085266,45.422203 
	C387.605835,68.982857 364.147430,92.564491 340.385681,115.998444 
	C335.624451,111.288101 331.157928,106.716774 326.994324,101.962517 
	C328.185425,101.030792 329.134308,100.342697 329.953125,99.524452 
	C361.015411,68.484001 392.071960,37.437782 423.093140,6.356295 
	C424.235443,5.211758 425.016693,3.706860 425.966217,2.369896 
z"/>
<path fill="#A32B70" opacity="1.000000" stroke="none" 
	d="
M158.980255,2.334781 
	C163.998108,2.291026 169.015961,2.247275 174.489929,2.273992 
	C173.768997,3.924630 172.767548,5.680209 171.389572,7.059676 
	C116.740913,61.767796 62.065819,116.449554 7.340840,171.081329 
	C5.759582,172.659882 3.603137,173.662262 1.357441,174.966644 
	C1.000000,170.643097 1.000000,166.286194 1.330082,161.376709 
	C2.980517,159.841949 4.448131,159.007156 5.600044,157.856384 
	C55.669228,107.836388 105.719566,57.797516 155.709229,7.698094 
	C157.147095,6.257077 157.905197,4.137803 158.980255,2.334781 
z"/>
<path fill="#922978" opacity="1.000000" stroke="none" 
	d="
M98.531349,0.999999 
	C97.363098,3.802754 96.227058,7.102539 94.013557,9.333107 
	C64.635139,38.937984 35.111229,68.398537 5.592238,97.863647 
	C4.442282,99.011505 2.977986,99.844452 1.330080,100.912064 
	C1.000000,91.979103 1.000000,82.958214 1.376406,73.464157 
	C3.736679,71.925247 6.112283,71.254501 7.645330,69.734154 
	C28.825434,48.729557 49.913963,27.632248 70.928574,6.462002 
	C72.347008,5.033062 72.994141,2.838487 74.000000,1.000001 
	C82.020897,1.000000 90.041801,1.000000 98.531349,0.999999 
z"/>
<path fill="#A02A71" opacity="1.000000" stroke="none" 
	d="
M158.522903,2.264049 
	C157.905197,4.137803 157.147095,6.257077 155.709229,7.698094 
	C105.719566,57.797516 55.669228,107.836388 5.600044,157.856384 
	C4.448131,159.007156 2.980517,159.841949 1.330082,160.912064 
	C1.000000,156.310745 1.000000,151.621490 1.000002,146.466125 
	C2.836197,144.996475 5.033723,144.355286 6.456181,142.936844 
	C51.681641,97.838943 97.004097,52.834827 141.764908,7.279098 
	C147.062363,1.887569 152.031174,1.914377 158.522903,2.264049 
z"/>
<path fill="#000000" opacity="1.000000" stroke="none" 
	d="
M1.000000,70.000000 
	C1.000000,47.072102 1.000000,24.144205 1.000000,1.000000 
	C24.353783,1.000000 47.708233,1.000000 71.642319,1.395889 
	C65.749641,3.846436 59.069000,5.408329 52.841202,8.041323 
	C26.324488,19.252083 9.971288,39.223186 2.959304,67.036911 
	C2.686152,68.120399 1.669963,69.016556 1.000000,70.000000 
z"/>
<path fill="#000000" opacity="1.000000" stroke="none" 
	d="
M450.997467,4.159440 
	C447.370819,3.363076 443.744171,2.566710 440.058777,1.385171 
	C464.256500,1.000000 488.513031,1.000000 513.000000,1.000000 
	C513.000000,22.687017 513.000000,44.374851 513.000000,66.531342 
	C512.361694,66.674377 511.312805,66.486679 511.149780,66.001389 
	C509.817078,62.034210 508.649597,58.011513 507.169922,53.409607 
	C499.784515,37.289120 489.806213,24.183952 474.688354,15.005417 
	C466.580383,11.283129 458.788910,7.721283 450.997467,4.159440 
z"/>
<path fill="#000000" opacity="1.000000" stroke="none" 
	d="
M1.000000,446.468658 
	C1.588635,446.099792 2.177269,446.199554 2.901468,447.054474 
	C5.225294,458.476624 8.953629,468.466644 15.945746,477.398743 
	C25.477942,491.293427 37.738922,501.410522 53.002396,507.834930 
	C56.875603,509.350464 60.748806,510.865997 64.311005,512.690796 
	C43.070915,513.000000 22.141827,513.000000 1.000000,513.000000 
	C1.000000,490.979553 1.000000,468.958435 1.000000,446.468658 
z"/>
<path fill="#000000" opacity="1.000000" stroke="none" 
	d="
M450.468658,513.000000 
	C450.462067,512.343384 450.798798,511.272644 451.404144,511.089478 
	C482.796906,501.589661 503.032349,481.363251 511.075104,449.315643 
	C511.256378,448.593231 511.932220,447.994934 512.688721,447.669373 
	C513.000000,469.592346 513.000000,491.184692 513.000000,513.000000 
	C492.312958,513.000000 471.625153,513.000000 450.468658,513.000000 
z"/>
<path fill="#8D297A" opacity="1.000000" stroke="none" 
	d="
M1.000000,70.375000 
	C1.669963,69.016556 2.686152,68.120399 2.959304,67.036911 
	C9.971288,39.223186 26.324488,19.252083 52.841202,8.041323 
	C59.069000,5.408329 65.749641,3.846436 72.110977,1.395889 
	C72.444443,1.000000 72.888893,1.000000 73.666672,1.000001 
	C72.994141,2.838487 72.347008,5.033062 70.928574,6.462002 
	C49.913963,27.632248 28.825434,48.729557 7.645330,69.734154 
	C6.112283,71.254501 3.736679,71.925247 1.376406,72.995499 
	C1.000000,72.250000 1.000000,71.500000 1.000000,70.375000 
z"/>
<path fill="#FEFBFC" opacity="1.000000" stroke="none" 
	d="
M326.691437,102.145432 
	C331.157928,106.716774 335.624451,111.288101 340.538025,116.304527 
	C346.940063,122.603989 352.895081,128.458359 358.989899,134.608002 
	C360.173523,135.966599 361.209229,137.038040 362.262543,138.091873 
	C367.526672,143.358444 374.744354,147.769028 377.519226,154.121307 
	C380.344788,160.589569 378.798645,168.967392 379.169556,176.508957 
	C379.177643,176.673386 379.219635,176.836166 379.245819,176.999710 
	C379.195953,201.023346 379.146088,225.046997 379.170380,249.533875 
	C379.195374,274.355682 379.146210,298.714233 379.171326,323.536346 
	C379.196106,348.357727 379.146576,372.715546 379.171204,397.536987 
	C379.183929,404.284424 379.158234,410.568909 379.050018,416.851990 
	C378.959900,422.082764 377.090607,423.931671 371.804474,423.994873 
	C366.179138,424.062134 360.552582,424.025940 354.462189,424.103638 
	C329.307373,424.126556 304.616882,424.080750 279.462036,424.104095 
	C254.307266,424.126831 229.616913,424.080475 204.462219,424.103333 
	C183.917236,424.117554 163.835922,424.125458 143.756775,423.921509 
	C141.449890,423.898102 139.155029,422.692535 136.446487,421.444824 
	C135.827454,418.546173 135.450882,416.239166 135.431870,413.929169 
	C135.283859,395.952362 135.204681,377.974945 135.219208,359.541382 
	C135.256943,345.722748 135.179718,332.360474 135.102509,318.998169 
	C135.180237,305.636414 135.257996,292.274658 135.221680,278.456116 
	C135.182739,262.970337 135.257843,247.941330 135.218445,232.455582 
	C135.179565,213.303528 135.255173,194.608200 135.216644,175.456100 
	C135.179428,155.637589 135.256348,136.275864 135.218475,116.457703 
	C135.206619,110.230316 135.249207,104.457474 135.430161,98.688965 
	C135.598282,93.329948 137.309998,91.674957 142.728195,91.563087 
	C147.515839,91.464233 152.306061,91.490448 158.002167,91.463837 
	C177.940048,91.380547 196.970917,91.294853 216.455597,91.336761 
	C234.938660,91.377670 252.967926,91.290970 271.451660,91.330223 
	C285.270630,91.313728 298.635132,91.171272 312.357788,91.104126 
	C314.565247,92.104767 316.668182,92.727531 318.209808,94.019882 
	C321.203644,96.529633 323.882233,99.415421 326.691437,102.145432 
M146.968933,246.925064 
	C147.020050,258.284210 147.071167,269.643372 146.971848,281.928802 
	C147.022522,298.953339 147.073181,315.977844 146.973434,333.928741 
	C147.024094,356.285400 147.074753,378.642059 146.970840,401.908264 
	C146.970840,405.324707 146.970840,408.741180 146.970840,412.327240 
	C158.665039,412.327240 169.837967,412.327240 181.914032,412.584412 
	C196.935013,412.500000 211.955978,412.415588 227.887146,412.584045 
	C250.251404,412.511322 272.615662,412.438629 295.888062,412.619476 
	C319.755554,412.619476 343.623077,412.619476 367.530212,412.619476 
	C367.530212,386.837769 367.530212,361.900391 367.698761,336.044403 
	C367.635651,314.026703 367.572510,292.009033 367.699310,269.072815 
	C367.636230,247.047775 367.573120,225.022751 367.696014,202.077560 
	C367.696014,189.210587 367.696014,176.343597 367.696014,163.221039 
	C353.083801,163.221039 339.043213,163.221039 324.081848,163.074646 
	C321.442352,163.064148 318.802887,163.055878 316.163391,163.042694 
	C309.007660,163.006943 307.651611,161.592728 307.564392,154.247910 
	C307.484192,147.496033 307.343964,140.744888 307.493469,133.088425 
	C307.493469,123.181381 307.493469,113.274345 307.493469,103.145699 
	C302.586609,103.145699 298.292847,103.145699 293.071564,103.002106 
	C282.381348,103.051270 271.691162,103.100433 260.073547,103.003593 
	C251.382416,103.051880 242.691269,103.100159 233.072784,103.002747 
	C225.048828,103.051933 217.024887,103.101120 208.073441,103.004524 
	C199.715988,103.052513 191.358536,103.100502 182.073425,103.003319 
	C170.474075,103.003319 158.874725,103.003319 147.125854,103.003319 
	C147.125854,115.403687 147.125854,127.201759 146.972000,139.926041 
	C147.023788,148.284317 147.075577,156.642593 146.973557,165.926956 
	C147.024597,173.951401 147.075623,181.975845 146.973145,190.926498 
	C147.024933,199.284058 147.076736,207.641617 146.974991,216.925659 
	C147.024460,226.616699 147.073929,236.307755 146.968933,246.925064 
M318.982239,128.503723 
	C318.982239,136.090271 318.982239,143.676819 318.982239,151.312424 
	C332.520599,151.312424 345.371307,151.312424 356.587891,151.312424 
	C344.327057,139.034927 331.434509,126.124855 318.982422,113.655838 
	C318.982422,117.548454 318.982422,122.527466 318.982239,128.503723 
z"/>
<path fill="#E8324D" opacity="1.000000" stroke="none" 
	d="
M379.587524,176.961029 
	C379.219635,176.836166 379.177643,176.673386 379.169556,176.508957 
	C378.798645,168.967392 380.344788,160.589569 377.519226,154.121307 
	C374.744354,147.769028 367.526672,143.358444 362.262543,138.091873 
	C361.209229,137.038040 360.173523,135.966599 359.173401,134.305084 
	C360.786865,131.995819 362.295380,130.223587 363.935242,128.582642 
	C399.178497,93.315643 434.457001,58.083805 469.641663,22.758495 
	C471.797363,20.594143 473.233795,17.713316 475.004883,15.165857 
	C489.806213,24.183952 499.784515,37.289120 506.887634,53.201061 
	C504.596283,55.207706 502.044220,56.544903 500.095795,58.487572 
	C461.980835,96.490570 423.946777,134.574738 385.842133,172.588150 
	C384.131958,174.294266 381.911865,175.489258 379.587524,176.961029 
z"/>
<path fill="#B82D66" opacity="1.000000" stroke="none" 
	d="
M216.001785,91.209167 
	C196.970917,91.294853 177.940048,91.380547 158.455902,91.337112 
	C159.424896,89.215668 160.601868,86.979088 162.306198,85.267662 
	C187.800903,59.666744 213.378677,34.148552 238.880844,8.555037 
	C240.477127,6.953038 241.609955,4.889216 243.019760,2.716144 
	C262.087830,2.359590 281.094513,2.327142 300.454102,2.638025 
	C299.408600,4.617005 298.112457,6.354703 296.596588,7.873105 
	C271.059082,33.453270 245.467331,58.979469 219.993820,84.623123 
	C218.235260,86.393425 217.312973,88.994461 216.001785,91.209167 
z"/>
<path fill="#E8324D" opacity="1.000000" stroke="none" 
	d="
M135.104233,359.997742 
	C135.204681,377.974945 135.283859,395.952362 135.431870,413.929169 
	C135.450882,416.239166 135.827454,418.546173 136.117249,421.241547 
	C134.674637,423.375122 133.249939,425.218353 131.617188,426.853851 
	C106.864555,451.648315 82.067757,476.398712 57.348053,501.225861 
	C55.653000,502.928284 54.486732,505.157227 53.038475,507.488098 
	C37.738922,501.410522 25.477942,491.293427 16.233334,477.217957 
	C18.047668,475.218689 19.681746,473.802460 21.207350,472.277710 
	C57.202003,436.302124 93.174065,400.303925 129.204102,364.363861 
	C130.917587,362.654602 133.126190,361.441742 135.104233,359.997742 
z"/>
<path fill="#E02F52" opacity="1.000000" stroke="none" 
	d="
M135.219208,359.541382 
	C133.126190,361.441742 130.917587,362.654602 129.204102,364.363861 
	C93.174065,400.303925 57.202003,436.302124 21.207350,472.277710 
	C19.681746,473.802460 18.047668,475.218689 16.176529,476.866211 
	C8.953629,468.466644 5.225294,458.476624 3.102185,447.407074 
	C5.339577,445.608307 7.847023,444.548340 9.634807,442.766357 
	C49.479668,403.050293 89.238831,363.248230 129.048950,323.497253 
	C130.668564,321.880035 132.626816,320.601990 134.764893,319.082031 
	C135.179718,332.360474 135.256943,345.722748 135.219208,359.541382 
z"/>
<path fill="#C52F61" opacity="1.000000" stroke="none" 
	d="
M216.455597,91.336761 
	C217.312973,88.994461 218.235260,86.393425 219.993820,84.623123 
	C245.467331,58.979469 271.059082,33.453270 296.596588,7.873105 
	C298.112457,6.354703 299.408600,4.617005 300.922302,2.688138 
	C319.059387,2.364260 337.081146,2.333599 355.521271,2.673818 
	C354.595276,4.894082 353.468475,6.960250 351.874054,8.560452 
	C326.374481,34.152153 300.798859,59.668110 275.306122,85.266594 
	C273.601349,86.978455 272.421295,89.212891 270.997192,91.204269 
	C252.967926,91.290970 234.938660,91.377670 216.455597,91.336761 
z"/>
<path fill="#CF2F5C" opacity="1.000000" stroke="none" 
	d="
M271.451660,91.330231 
	C272.421295,89.212891 273.601349,86.978455 275.306122,85.266594 
	C300.798859,59.668110 326.374481,34.152153 351.874054,8.560452 
	C353.468475,6.960250 354.595276,4.894082 355.990234,2.716739 
	C369.381042,2.359305 382.721191,2.329831 396.423340,2.637171 
	C395.395416,4.610737 394.111908,6.353682 392.599762,7.868423 
	C367.099609,33.412865 341.545837,58.903870 316.103241,84.505417 
	C314.336365,86.283356 313.349304,88.836288 311.999603,91.028824 
	C298.635132,91.171272 285.270630,91.313728 271.451660,91.330231 
z"/>
<path fill="#D52E58" opacity="1.000000" stroke="none" 
	d="
M312.357788,91.104126 
	C313.349304,88.836288 314.336365,86.283356 316.103241,84.505417 
	C341.545837,58.903870 367.099609,33.412865 392.599762,7.868423 
	C394.111908,6.353682 395.395416,4.610737 396.889771,2.675069 
	C406.343201,2.347986 415.692230,2.319821 425.503723,2.330775 
	C425.016693,3.706860 424.235443,5.211758 423.093140,6.356295 
	C392.071960,37.437782 361.015411,68.484001 329.953125,99.524452 
	C329.134308,100.342697 328.185425,101.030792 326.994324,101.962509 
	C323.882233,99.415421 321.203644,96.529633 318.209808,94.019882 
	C316.668182,92.727531 314.565247,92.104767 312.357788,91.104126 
z"/>
<path fill="#E02F52" opacity="1.000000" stroke="none" 
	d="
M474.688354,15.005416 
	C473.233795,17.713316 471.797363,20.594143 469.641663,22.758495 
	C434.457001,58.083805 399.178497,93.315643 363.935242,128.582642 
	C362.295380,130.223587 360.786865,131.995819 359.033630,134.009811 
	C352.895081,128.458359 346.940063,122.603989 340.832703,116.443542 
	C364.147430,92.564491 387.605835,68.982857 411.085266,45.422203 
	C423.065643,33.400383 435.098419,21.430771 447.065155,9.395471 
	C448.451965,8.000715 449.567078,6.335826 450.902832,4.477811 
	C458.788910,7.721283 466.580383,11.283129 474.688354,15.005416 
z"/>
<path fill="#EA3D48" opacity="1.000000" stroke="none" 
	d="
M367.510010,202.997711 
	C367.573120,225.022751 367.636230,247.047775 367.278931,269.578186 
	C365.023163,271.438202 362.981506,272.585876 361.383209,274.178467 
	C336.446106,299.027191 311.583038,323.950226 286.636536,348.789459 
	C284.926880,350.491791 282.691650,351.666229 280.517273,352.792419 
	C276.787109,342.502716 270.227142,339.623047 261.113556,344.591064 
	C255.610001,347.591156 250.270584,351.028198 245.311157,354.856720 
	C238.913940,359.795197 238.865860,367.519287 244.154663,373.620575 
	C247.463165,377.437347 251.907883,378.088409 256.105835,379.631683 
	C254.485840,381.971039 253.227371,384.158325 251.520157,385.907745 
	C244.568954,393.030853 237.429520,399.970337 230.483780,407.098633 
	C229.042664,408.577637 228.132065,410.573517 226.976959,412.331177 
	C211.955978,412.415588 196.935013,412.500000 181.507935,412.142517 
	C184.673569,407.694489 188.385635,403.801605 191.751465,399.629425 
	C193.202286,397.831055 193.936462,395.454559 195.452362,393.256989 
	C198.895172,393.157013 201.882141,393.161560 204.868439,393.119415 
	C208.911758,393.062378 210.948563,390.950012 211.058533,386.943909 
	C211.140396,383.961975 211.193054,380.979187 211.618774,377.983826 
	C213.818146,376.981171 216.019730,376.356812 217.442062,374.946533 
	C236.690048,355.862305 255.863525,336.702271 274.930969,317.437775 
	C276.427063,315.926239 276.997223,313.498230 278.456970,311.396423 
	C291.690002,311.279022 304.464050,311.202087 317.237183,311.278778 
	C321.207703,311.302612 324.244690,310.109131 324.810944,305.887878 
	C325.283905,302.362457 322.111786,299.989136 317.374298,299.935577 
	C309.250183,299.843719 301.125519,299.801208 293.039215,299.397217 
	C294.036285,297.553711 294.783752,295.848785 295.992371,294.584808 
	C300.230835,290.152283 304.730530,285.966888 308.907074,281.479218 
	C310.286743,279.996735 310.988220,277.883118 312.461670,275.972626 
	C323.044983,275.872437 333.166443,275.830841 343.287750,275.856598 
	C347.113068,275.866333 349.742767,274.506531 350.002197,270.330505 
	C350.294434,265.626099 347.264252,264.310059 343.351379,264.248535 
	C333.901276,264.099915 324.449402,264.061737 315.087616,263.650543 
	C316.385254,261.780945 317.457733,260.105774 318.824493,258.721069 
	C326.127197,251.322418 333.603394,244.091888 340.785339,236.579300 
	C342.627777,234.652054 343.621918,231.913895 345.307129,229.392197 
	C350.740875,226.823166 351.325043,225.031647 348.987335,219.117249 
	C353.645691,214.180145 358.023651,209.451889 362.669098,205.002975 
	C363.844666,203.877151 365.873352,203.642090 367.510010,202.997711 
z"/>
<path fill="#E8314E" opacity="1.000000" stroke="none" 
	d="
M147.125412,400.998718 
	C147.074753,378.642059 147.024094,356.285400 147.369568,333.371429 
	C154.844467,325.658295 161.923248,318.502502 169.468872,311.306335 
	C181.258148,311.263580 192.580948,311.316437 203.902802,311.234619 
	C209.277084,311.195770 210.988098,309.381561 211.064148,303.968536 
	C211.166992,296.647034 211.198883,289.324524 211.586075,281.914093 
	C214.247910,280.076538 216.653091,278.410278 218.905838,276.558594 
	C222.293732,273.773895 225.574905,270.859344 229.041748,268.383606 
	C229.324051,273.829529 231.335556,275.778046 236.823868,275.831726 
	C249.547867,275.956116 262.272736,275.991425 274.907227,276.388428 
	C269.384094,282.470306 263.878113,288.160522 258.564911,294.025421 
	C257.081329,295.663055 256.166962,297.816345 254.529007,299.809906 
	C247.795807,299.908508 241.511032,299.704865 235.263168,300.094025 
	C233.466034,300.205963 230.885040,301.660919 230.267792,303.160492 
	C229.543335,304.920532 229.867157,307.970337 231.034073,309.405640 
	C232.167130,310.799255 234.943817,310.856567 236.954117,311.826172 
	C235.786392,313.754272 234.860535,315.550781 233.507477,316.927399 
	C225.809174,324.759766 217.936737,332.422150 210.304871,340.317657 
	C208.795334,341.879303 208.077393,344.206146 206.526306,346.193329 
	C194.935165,346.193695 183.812103,346.159698 172.689102,346.175751 
	C165.845856,346.185638 164.109695,347.910950 164.069397,354.638672 
	C164.002792,365.758545 163.957397,376.878601 163.551727,388.033936 
	C161.324005,389.355896 159.341644,390.514008 157.593384,391.955963 
	C154.037155,394.889069 150.607330,397.975494 147.125412,400.998718 
z"/>
<path fill="#EB4242" opacity="1.000000" stroke="none" 
	d="
M280.700836,353.086182 
	C282.691650,351.666229 284.926880,350.491791 286.636536,348.789459 
	C311.583038,323.950226 336.446106,299.027191 361.383209,274.178467 
	C362.981506,272.585876 365.023163,271.438202 367.183990,270.037445 
	C367.572510,292.009033 367.635651,314.026703 367.304962,336.601746 
	C360.006378,343.547699 353.139618,349.978241 346.172180,356.297760 
	C344.248077,358.042969 342.024170,359.457703 339.534668,361.005615 
	C335.450348,360.427246 333.270172,361.944031 331.839630,365.435791 
	C330.972931,367.551392 329.099426,369.254517 327.489777,371.393341 
	C324.931519,368.370453 323.037781,365.838135 320.842285,363.602142 
	C316.741486,359.425720 310.705444,359.094208 308.007599,364.057159 
	C304.198334,371.064697 299.521210,371.113159 293.216431,368.864197 
	C291.115417,368.114746 288.629913,368.259216 286.327148,368.309998 
	C283.939484,368.362579 281.560272,368.796997 278.947327,369.090179 
	C279.581787,363.299713 280.141296,358.192963 280.700836,353.086182 
z"/>
<path fill="#D53059" opacity="1.000000" stroke="none" 
	d="
M293.999115,103.145699 
	C298.292847,103.145699 302.586609,103.145699 307.493469,103.145699 
	C307.493469,113.274345 307.493469,123.181381 307.014709,133.620651 
	C305.314331,134.980042 303.924255,135.637863 302.896454,136.659973 
	C289.105377,150.374527 275.346954,164.122086 261.645020,177.925629 
	C260.522461,179.056519 259.870331,180.654358 258.540771,182.138184 
	C250.611130,182.273575 243.118484,182.000732 235.683456,182.532761 
	C233.575455,182.683624 230.991623,184.805038 229.856369,186.743317 
	C229.159454,187.933243 230.284576,190.981552 231.536865,192.292023 
	C232.711823,193.521622 235.130173,193.563049 236.907135,194.448059 
	C229.232697,202.565521 221.675476,210.384872 214.028442,218.115387 
	C213.423645,218.726761 212.195297,218.721329 211.180939,218.539124 
	C211.067337,207.384125 211.029526,196.692581 211.335724,185.923462 
	C213.714722,184.468826 216.030991,183.374512 217.742310,181.672104 
	C241.795502,157.743958 265.791718,133.758194 289.706177,109.691498 
	C291.508087,107.878120 292.585114,105.344513 293.999115,103.145699 
z"/>
<path fill="#E9324D" opacity="1.000000" stroke="none" 
	d="
M367.603027,202.537628 
	C365.873352,203.642090 363.844666,203.877151 362.669098,205.002975 
	C358.023651,209.451889 353.645691,214.180145 348.606110,218.951157 
	C345.959747,218.731018 343.877808,218.059128 341.791534,218.045364 
	C321.528320,217.911514 301.264404,217.887894 281.096130,217.514984 
	C286.649200,211.443069 292.185547,205.760483 297.513458,199.888763 
	C298.993256,198.257919 299.854950,196.066254 301.463531,194.056488 
	C303.423096,193.969955 304.919312,193.949677 306.415558,193.949158 
	C318.719055,193.944931 331.027405,194.119797 343.321655,193.781693 
	C345.546539,193.720490 348.317749,192.014771 349.685364,190.200378 
	C350.532349,189.076630 349.874023,185.639053 348.683472,184.463425 
	C347.261932,183.059662 344.563232,182.444077 342.394318,182.387695 
	C331.599976,182.106979 320.797943,182.122406 310.085175,181.701111 
	C312.651703,178.541779 315.214081,175.782181 317.589294,172.869934 
	C320.151703,169.728088 322.538971,166.443405 325.002625,163.221039 
	C339.043213,163.221039 353.083801,163.221039 367.696014,163.221039 
	C367.696014,176.343597 367.696014,189.210587 367.603027,202.537628 
z"/>
<path fill="#ED5347" opacity="1.000000" stroke="none" 
	d="
M339.937836,361.024048 
	C342.024170,359.457703 344.248077,358.042969 346.172180,356.297760 
	C353.139618,349.978241 360.006378,343.547699 367.220703,337.061035 
	C367.530212,361.900391 367.530212,386.837769 367.530212,412.619476 
	C343.623077,412.619476 319.755554,412.619476 295.482605,412.177185 
	C296.232880,410.149139 297.216278,408.394775 298.574036,407.006531 
	C304.619995,400.824768 310.884827,394.853394 316.821503,388.570648 
	C318.686371,386.597137 319.773499,383.888672 321.587311,381.650421 
	C328.425507,385.658081 337.551117,379.399475 341.744934,371.647461 
	C343.871796,367.716125 343.893311,363.993805 339.937836,361.024048 
z"/>
<path fill="#C82D5E" opacity="1.000000" stroke="none" 
	d="
M234.000153,103.148445 
	C242.691269,103.100159 251.382416,103.051880 260.500763,103.424408 
	C259.632996,105.715744 258.585327,107.832375 257.005768,109.419685 
	C234.718552,131.816284 212.343277,154.125229 190.050369,176.516174 
	C188.457108,178.116409 187.339035,180.189774 185.542328,182.148041 
	C180.309937,182.280579 175.533432,182.236572 170.761078,182.356934 
	C166.415436,182.466537 164.104080,184.724518 164.062729,189.169632 
	C164.022934,193.446655 163.939636,197.723251 163.554428,202.093857 
	C161.340622,203.773422 159.430252,205.338730 157.558899,206.949371 
	C154.070129,209.952057 150.604050,212.981094 147.128525,215.999176 
	C147.076736,207.641617 147.024933,199.284058 147.370697,190.369614 
	C149.072830,188.814240 150.509827,187.948364 151.662613,186.797791 
	C178.101624,160.409149 204.518890,133.998718 230.894791,107.547012 
	C232.143951,106.294266 232.974594,104.624184 234.000153,103.148445 
z"/>
<path fill="#CE2E5B" opacity="1.000000" stroke="none" 
	d="
M186.000031,182.043152 
	C187.339035,180.189774 188.457108,178.116409 190.050369,176.516174 
	C212.343277,154.125229 234.718552,131.816284 257.005768,109.419685 
	C258.585327,107.832375 259.632996,105.715744 260.964478,103.497406 
	C271.691162,103.100433 282.381348,103.051270 293.535339,103.073898 
	C292.585114,105.344513 291.508087,107.878120 289.706177,109.691498 
	C265.791718,133.758194 241.795502,157.743958 217.742310,181.672104 
	C216.030991,183.374512 213.714722,184.468826 211.080551,185.679962 
	C208.067505,184.449478 205.718399,182.693390 203.226730,182.460129 
	C197.521500,181.925980 191.746628,182.135590 186.000031,182.043152 
z"/>
<path fill="#EB4442" opacity="1.000000" stroke="none" 
	d="
M321.216583,381.516602 
	C319.773499,383.888672 318.686371,386.597137 316.821503,388.570648 
	C310.884827,394.853394 304.619995,400.824768 298.574036,407.006531 
	C297.216278,408.394775 296.232880,410.149139 295.028503,412.050415 
	C272.615662,412.438629 250.251404,412.511322 227.432068,412.457611 
	C228.132065,410.573517 229.042664,408.577637 230.483780,407.098633 
	C237.429520,399.970337 244.568954,393.030853 251.520157,385.907745 
	C253.227371,384.158325 254.485840,381.971039 256.531494,379.622559 
	C259.049103,379.624359 260.985870,379.988647 263.479797,380.457703 
	C261.875275,383.811310 261.947754,387.764191 256.373810,387.121002 
	C254.815216,386.941132 251.592072,389.775665 251.474213,391.397583 
	C251.325531,393.443878 253.047699,396.559723 254.888214,397.645691 
	C260.943573,401.218445 267.706146,397.582947 272.130157,389.715607 
	C273.842316,386.670868 272.984161,381.611938 277.989807,380.881897 
	C281.924255,380.308044 285.946625,379.667603 289.874359,379.920380 
	C293.282440,380.139679 296.650818,381.449341 299.968140,382.494781 
	C304.889709,384.045807 308.781769,382.811066 311.758179,378.623322 
	C312.691437,377.310303 313.606049,375.984039 314.714478,374.398804 
	C317.009888,376.911560 319.113251,379.214081 321.216583,381.516602 
z"/>
<path fill="#C32D60" opacity="1.000000" stroke="none" 
	d="
M233.536469,103.075600 
	C232.974594,104.624184 232.143951,106.294266 230.894791,107.547012 
	C204.518890,133.998718 178.101624,160.409149 151.662613,186.797791 
	C150.509827,187.948364 149.072830,188.814240 147.447449,189.906509 
	C147.075623,181.975845 147.024597,173.951401 147.399689,165.427917 
	C149.460464,163.875595 151.343033,163.071808 152.692200,161.731216 
	C170.471237,144.065079 188.202179,126.350143 205.846848,108.549980 
	C207.267822,107.116470 207.966568,104.967041 209.000916,103.150299 
	C217.024887,103.101120 225.048828,103.051933 233.536469,103.075600 
z"/>
<path fill="#DF2F53" opacity="1.000000" stroke="none" 
	d="
M324.542236,163.147858 
	C322.538971,166.443405 320.151703,169.728088 317.589294,172.869934 
	C315.214081,175.782181 312.651703,178.541779 309.626343,181.803589 
	C292.387177,182.170807 275.693390,182.103027 258.999634,182.035233 
	C259.870331,180.654358 260.522461,179.056519 261.645020,177.925629 
	C275.346954,164.122086 289.105377,150.374527 302.896454,136.659973 
	C303.924255,135.637863 305.314331,134.980042 306.883057,134.073151 
	C307.343964,140.744888 307.484192,147.496033 307.564392,154.247910 
	C307.651611,161.592728 309.007660,163.006943 316.163391,163.042694 
	C318.802887,163.055878 321.442352,163.064148 324.542236,163.147858 
z"/>
<path fill="#BE2D63" opacity="1.000000" stroke="none" 
	d="
M208.537170,103.077408 
	C207.966568,104.967041 207.267822,107.116470 205.846848,108.549980 
	C188.202179,126.350143 170.471237,144.065079 152.692200,161.731216 
	C151.343033,163.071808 149.460464,163.875595 147.476593,164.964874 
	C147.075577,156.642593 147.023788,148.284317 147.398270,139.427231 
	C149.225632,138.107483 150.869019,137.532257 151.989746,136.427017 
	C161.577896,126.971596 171.112762,117.460770 180.540848,107.846161 
	C181.725647,106.637901 182.198410,104.731453 183.001083,103.148483 
	C191.358536,103.100502 199.715988,103.052513 208.537170,103.077408 
z"/>
<path fill="#D5315A" opacity="1.000000" stroke="none" 
	d="
M147.122284,281.002533 
	C147.071167,269.643372 147.020050,258.284210 147.367279,246.368729 
	C149.409042,244.476639 151.130081,243.224777 152.681320,241.789413 
	C157.379318,237.442337 162.011505,233.024155 167.078705,228.764893 
	C177.993027,229.106705 188.497940,229.317291 198.902679,229.833160 
	C197.334930,232.125290 196.075226,234.315552 194.364029,236.063904 
	C186.797714,243.794525 179.048309,251.346176 171.499283,259.093292 
	C170.066315,260.563843 169.241074,262.626617 167.905121,264.614227 
	C166.520721,265.897522 165.366623,266.982727 163.866760,268.134888 
	C160.443756,270.871216 157.449036,273.644562 154.261200,276.174530 
	C152.017517,277.955170 149.511276,279.404999 147.122284,281.002533 
z"/>
<path fill="#DC3055" opacity="1.000000" stroke="none" 
	d="
M147.047058,281.465668 
	C149.511276,279.404999 152.017517,277.955170 154.261200,276.174530 
	C157.449036,273.644562 160.443756,270.871216 163.843979,268.598907 
	C164.134338,280.587280 164.157501,292.179199 164.036987,303.769592 
	C163.997910,307.526306 165.227127,310.208221 169.002014,311.346680 
	C161.923248,318.502502 154.844467,325.658295 147.444778,332.908264 
	C147.073181,315.977844 147.022522,298.953339 147.047058,281.465668 
z"/>
<path fill="#E13356" opacity="1.000000" stroke="none" 
	d="
M318.982330,128.005096 
	C318.982422,122.527466 318.982422,117.548454 318.982422,113.655838 
	C331.434509,126.124855 344.327057,139.034927 356.587891,151.312424 
	C345.371307,151.312424 332.520599,151.312424 318.982239,151.312424 
	C318.982239,143.676819 318.982239,136.090271 318.982330,128.005096 
z"/>
<path fill="#EA3749" opacity="1.000000" stroke="none" 
	d="
M147.048126,401.453491 
	C150.607330,397.975494 154.037155,394.889069 157.593384,391.955963 
	C159.341644,390.514008 161.324005,389.355896 163.693893,388.371948 
	C165.394745,392.235199 168.004745,393.226959 171.569565,393.184906 
	C179.376740,393.092712 187.187149,393.272217 194.996216,393.340759 
	C193.936462,395.454559 193.202286,397.831055 191.751465,399.629425 
	C188.385635,403.801605 184.673569,407.694489 181.056381,412.013916 
	C169.837967,412.327240 158.665039,412.327240 146.970840,412.327240 
	C146.970840,408.741180 146.970840,405.324707 147.048126,401.453491 
z"/>
<path fill="#B82C66" opacity="1.000000" stroke="none" 
	d="
M182.537262,103.075897 
	C182.198410,104.731453 181.725647,106.637901 180.540848,107.846161 
	C171.112762,117.460770 161.577896,126.971596 151.989746,136.427017 
	C150.869019,137.532257 149.225632,138.107483 147.475189,138.964127 
	C147.125854,127.201759 147.125854,115.403687 147.125854,103.003319 
	C158.874725,103.003319 170.474075,103.003319 182.537262,103.075897 
z"/>
<path fill="#CD2E5C" opacity="1.000000" stroke="none" 
	d="
M166.669327,228.633667 
	C162.011505,233.024155 157.379318,237.442337 152.681320,241.789413 
	C151.130081,243.224777 149.409042,244.476639 147.444519,245.905594 
	C147.073929,236.307755 147.024460,226.616699 147.051758,216.462418 
	C150.604050,212.981094 154.070129,209.952057 157.558899,206.949371 
	C159.430252,205.338730 161.340622,203.773422 163.631805,202.556915 
	C164.042297,209.359283 163.840118,215.803925 164.185379,222.219101 
	C164.302521,224.395569 165.801697,226.497635 166.669327,228.633667 
z"/>
<path fill="#FFFBFB" opacity="1.000000" stroke="none" 
	d="
M321.587311,381.650421 
	C319.113251,379.214081 317.009888,376.911560 314.714478,374.398804 
	C313.606049,375.984039 312.691437,377.310303 311.758179,378.623322 
	C308.781769,382.811066 304.889709,384.045807 299.968140,382.494781 
	C296.650818,381.449341 293.282440,380.139679 289.874359,379.920380 
	C285.946625,379.667603 281.924255,380.308044 277.989807,380.881897 
	C272.984161,381.611938 273.842316,386.670868 272.130157,389.715607 
	C267.706146,397.582947 260.943573,401.218445 254.888214,397.645691 
	C253.047699,396.559723 251.325531,393.443878 251.474213,391.397583 
	C251.592072,389.775665 254.815216,386.941132 256.373810,387.121002 
	C261.947754,387.764191 261.875275,383.811310 263.479797,380.457703 
	C260.985870,379.988647 259.049103,379.624359 256.686707,379.269165 
	C251.907883,378.088409 247.463165,377.437347 244.154663,373.620575 
	C238.865860,367.519287 238.913940,359.795197 245.311157,354.856720 
	C250.270584,351.028198 255.610001,347.591156 261.113556,344.591064 
	C270.227142,339.623047 276.787109,342.502716 280.517273,352.792419 
	C280.141296,358.192963 279.581787,363.299713 278.947327,369.090179 
	C281.560272,368.796997 283.939484,368.362579 286.327148,368.309998 
	C288.629913,368.259216 291.115417,368.114746 293.216431,368.864197 
	C299.521210,371.113159 304.198334,371.064697 308.007599,364.057159 
	C310.705444,359.094208 316.741486,359.425720 320.842285,363.602142 
	C323.037781,365.838135 324.931519,368.370453 327.489777,371.393341 
	C329.099426,369.254517 330.972931,367.551392 331.839630,365.435791 
	C333.270172,361.944031 335.450348,360.427246 339.534668,361.005615 
	C343.893311,363.993805 343.871796,367.716125 341.744934,371.647461 
	C337.551117,379.399475 328.425507,385.658081 321.587311,381.650421 
M268.635864,360.123077 
	C268.770050,358.184509 268.904236,356.245911 269.137115,352.881592 
	C262.641998,357.012146 257.162933,360.496552 251.683868,363.980927 
	C251.702164,364.662659 251.720459,365.344391 251.738754,366.026123 
	C256.657715,367.179626 261.576691,368.333130 266.926544,369.587677 
	C267.546051,366.134094 268.009277,363.551758 268.635864,360.123077 
z"/>
<path fill="#EA3749" opacity="1.000000" stroke="none" 
	d="
M206.994400,346.180115 
	C208.077393,344.206146 208.795334,341.879303 210.304871,340.317657 
	C217.936737,332.422150 225.809174,324.759766 233.507477,316.927399 
	C234.860535,315.550781 235.786392,313.754272 237.413620,311.727295 
	C251.277695,311.367340 264.637695,311.431732 277.997681,311.496155 
	C276.997223,313.498230 276.427063,315.926239 274.930969,317.437775 
	C255.863525,336.702271 236.690048,355.862305 217.442062,374.946533 
	C216.019730,376.356812 213.818146,376.981171 211.544800,377.520569 
	C211.099503,369.334900 210.951843,361.596313 211.138245,353.865753 
	C211.223373,350.336121 210.070190,347.830353 206.994400,346.180115 
z"/>
<path fill="#FEFAFB" opacity="1.000000" stroke="none" 
	d="
M206.526306,346.193329 
	C210.070190,347.830353 211.223373,350.336121 211.138245,353.865753 
	C210.951843,361.596313 211.099503,369.334900 211.184723,377.533508 
	C211.193054,380.979187 211.140396,383.961975 211.058533,386.943909 
	C210.948563,390.950012 208.911758,393.062378 204.868439,393.119415 
	C201.882141,393.161560 198.895172,393.157013 195.452362,393.257019 
	C187.187149,393.272217 179.376740,393.092712 171.569565,393.184906 
	C168.004745,393.226959 165.394745,392.235199 164.045227,388.336548 
	C163.957397,376.878601 164.002792,365.758545 164.069397,354.638672 
	C164.109695,347.910950 165.845856,346.185638 172.689102,346.175751 
	C183.812103,346.159698 194.935165,346.193695 206.526306,346.193329 
M199.774506,369.503235 
	C199.774506,365.735107 199.774506,361.966949 199.774506,358.114624 
	C191.400192,358.114624 183.689926,358.114624 176.048492,358.114624 
	C176.048492,366.172516 176.048492,373.858917 176.048492,381.586670 
	C184.067520,381.586670 191.633545,381.586670 199.774200,381.586670 
	C199.774200,377.706268 199.774200,374.094330 199.774506,369.503235 
z"/>
<path fill="#E9344B" opacity="1.000000" stroke="none" 
	d="
M345.005768,229.548279 
	C343.621918,231.913895 342.627777,234.652054 340.785339,236.579300 
	C333.603394,244.091888 326.127197,251.322418 318.824493,258.721069 
	C317.457733,260.105774 316.385254,261.780945 314.626740,263.741089 
	C300.384277,264.099091 286.692017,264.038086 273.033600,263.621155 
	C274.209167,261.512756 275.100677,259.515717 276.534454,258.048706 
	C284.142761,250.264160 291.933838,242.658279 299.543091,234.874634 
	C300.976990,233.407852 301.874298,231.416489 303.470093,229.537872 
	C317.615906,229.455124 331.310822,229.501694 345.005768,229.548279 
z"/>
<path fill="#FEF5F6" opacity="1.000000" stroke="none" 
	d="
M272.999786,263.977112 
	C286.692017,264.038086 300.384277,264.099091 314.537384,264.069580 
	C324.449402,264.061737 333.901276,264.099915 343.351379,264.248535 
	C347.264252,264.310059 350.294434,265.626099 350.002197,270.330505 
	C349.742767,274.506531 347.113068,275.866333 343.287750,275.856598 
	C333.166443,275.830841 323.044983,275.872437 311.999725,275.887848 
	C299.049652,275.946625 287.023468,276.004761 274.997253,276.062866 
	C262.272736,275.991425 249.547867,275.956116 236.823868,275.831726 
	C231.335556,275.778046 229.324051,273.829529 229.156982,268.078491 
	C230.461792,266.369995 231.791672,265.350250 233.581818,264.304382 
	C247.027969,264.177917 260.013885,264.077515 272.999786,263.977112 
z"/>
<path fill="#FFFEFE" opacity="1.000000" stroke="none" 
	d="
M345.307129,229.392181 
	C331.310822,229.501694 317.615906,229.455124 303.015991,229.408783 
	C289.069183,229.495255 276.027344,229.581497 262.534393,229.538040 
	C252.388794,229.332016 242.694321,229.255692 232.712631,228.983612 
	C231.568253,226.390869 229.474258,223.484238 230.194168,221.737091 
	C230.946625,219.910965 234.293030,218.605057 236.709503,218.146362 
	C240.039871,217.514206 243.561600,217.890198 247.465454,217.903290 
	C258.953278,217.925766 269.976959,217.879318 281.000671,217.832855 
	C301.264404,217.887894 321.528320,217.911514 341.791534,218.045364 
	C343.877808,218.059128 345.959747,218.731018 348.424927,219.263611 
	C351.325043,225.031647 350.740875,226.823166 345.307129,229.392181 
z"/>
<path fill="#FFFEFE" opacity="1.000000" stroke="none" 
	d="
M278.456970,311.396423 
	C264.637695,311.431732 251.277695,311.367340 237.458206,311.401825 
	C234.943817,310.856567 232.167130,310.799255 231.034073,309.405640 
	C229.867157,307.970337 229.543335,304.920532 230.267792,303.160492 
	C230.885040,301.660919 233.466034,300.205963 235.263168,300.094025 
	C241.511032,299.704865 247.795807,299.908508 254.992218,299.890381 
	C268.278961,299.842010 280.640015,299.790009 293.001068,299.738007 
	C301.125519,299.801208 309.250183,299.843719 317.374298,299.935577 
	C322.111786,299.989136 325.283905,302.362457 324.810944,305.887878 
	C324.244690,310.109131 321.207703,311.302612 317.237183,311.278778 
	C304.464050,311.202087 291.690002,311.279022 278.456970,311.396423 
z"/>
<path fill="#EA3A4B" opacity="1.000000" stroke="none" 
	d="
M293.039215,299.397217 
	C280.640015,299.790009 268.278961,299.842010 255.454681,299.813538 
	C256.166962,297.816345 257.081329,295.663055 258.564911,294.025421 
	C263.878113,288.160522 269.384094,282.470306 274.907227,276.388458 
	C287.023468,276.004761 299.049652,275.946625 311.537842,275.973297 
	C310.988220,277.883118 310.286743,279.996735 308.907074,281.479218 
	C304.730530,285.966888 300.230835,290.152283 295.992371,294.584808 
	C294.783752,295.848785 294.036285,297.553711 293.039215,299.397217 
z"/>
<path fill="#FEFAFB" opacity="1.000000" stroke="none" 
	d="
M169.468872,311.306335 
	C165.227127,310.208221 163.997910,307.526306 164.036987,303.769592 
	C164.157501,292.179199 164.134338,280.587280 164.189728,268.531952 
	C165.366623,266.982727 166.520721,265.897522 168.364471,264.583160 
	C180.036087,264.233185 191.018082,264.112366 202.390381,264.086517 
	C209.812820,264.702515 211.031235,266.016235 211.083618,273.025513 
	C211.105988,276.018097 211.199844,279.010162 211.261215,282.002441 
	C211.198883,289.324524 211.166992,296.647034 211.064148,303.968536 
	C210.988098,309.381561 209.277084,311.195770 203.902802,311.234619 
	C192.580948,311.316437 181.258148,311.263580 169.468872,311.306335 
M198.146240,275.892242 
	C190.730026,275.892242 183.313812,275.892242 175.880325,275.892242 
	C175.880325,284.178406 175.880325,291.769257 175.880325,299.607666 
	C183.863205,299.607666 191.566986,299.607666 200.077881,299.607666 
	C199.723770,291.573608 199.384369,283.872833 198.146240,275.892242 
z"/>
<path fill="#E23052" opacity="1.000000" stroke="none" 
	d="
M211.586075,281.914093 
	C211.199844,279.010162 211.105988,276.018097 211.083618,273.025513 
	C211.031235,266.016235 209.812820,264.702515 202.423813,263.729614 
	C203.220093,261.509796 204.120697,259.494690 205.568481,258.014954 
	C213.484802,249.923874 221.566711,241.994995 229.510193,233.930084 
	C230.874664,232.544754 231.846573,230.772751 232.999832,229.179382 
	C242.694321,229.255692 252.388794,229.332016 262.521729,229.871368 
	C261.894379,232.134949 261.130768,234.229568 259.712372,235.687012 
	C252.064484,243.545502 244.204056,251.196991 236.544373,259.044250 
	C235.106903,260.516907 234.247650,262.553925 233.121567,264.330505 
	C231.791672,265.350250 230.461792,266.369995 229.016663,267.694885 
	C225.574905,270.859344 222.293732,273.773895 218.905838,276.558594 
	C216.653091,278.410278 214.247910,280.076538 211.586075,281.914093 
z"/>
<path fill="#DC3055" opacity="1.000000" stroke="none" 
	d="
M232.712631,228.983627 
	C231.846573,230.772751 230.874664,232.544754 229.510193,233.930084 
	C221.566711,241.994995 213.484802,249.923874 205.568481,258.014954 
	C204.120697,259.494690 203.220093,261.509796 202.033508,263.634705 
	C191.018082,264.112366 180.036087,264.233185 168.594757,264.385071 
	C169.241074,262.626617 170.066315,260.563843 171.499283,259.093292 
	C179.048309,251.346176 186.797714,243.794525 194.364029,236.063904 
	C196.075226,234.315552 197.334930,232.125290 199.347107,229.764664 
	C201.194534,229.374832 202.498062,229.380554 203.800049,229.338974 
	C209.327026,229.162491 210.891495,227.556763 211.079132,221.921097 
	C211.111557,220.947357 211.196213,219.975357 211.256744,219.002563 
	C212.195297,218.721329 213.423645,218.726761 214.028442,218.115387 
	C221.675476,210.384872 229.232697,202.565521 237.370514,194.373810 
	C247.952438,194.029160 257.976715,194.079529 267.906799,194.450439 
	C264.124664,198.764389 260.402252,202.726669 256.758972,206.760437 
	C253.461563,210.411209 250.250504,214.139954 247.001373,217.834335 
	C243.561600,217.890198 240.039871,217.514206 236.709503,218.146362 
	C234.293030,218.605057 230.946625,219.910965 230.194168,221.737091 
	C229.474258,223.484238 231.568253,226.390869 232.712631,228.983627 
z"/>
<path fill="#FEFAFB" opacity="1.000000" stroke="none" 
	d="
M211.180939,218.539124 
	C211.196213,219.975357 211.111557,220.947357 211.079132,221.921097 
	C210.891495,227.556763 209.327026,229.162491 203.800049,229.338974 
	C202.498062,229.380554 201.194534,229.374832 199.447296,229.459381 
	C188.497940,229.317291 177.993027,229.106705 167.078705,228.764893 
	C165.801697,226.497635 164.302521,224.395569 164.185379,222.219101 
	C163.840118,215.803925 164.042297,209.359283 163.952850,202.463104 
	C163.939636,197.723251 164.022934,193.446655 164.062729,189.169632 
	C164.104080,184.724518 166.415436,182.466537 170.761078,182.356934 
	C175.533432,182.236572 180.309937,182.280579 185.542328,182.148056 
	C191.746628,182.135590 197.521500,181.925980 203.226730,182.460129 
	C205.718399,182.693390 208.067505,184.449478 210.736542,185.757523 
	C211.029526,196.692581 211.067337,207.384125 211.180939,218.539124 
M199.735275,195.898865 
	C199.138397,195.257126 198.551224,194.067856 197.943146,194.057068 
	C190.665207,193.927887 183.384155,193.973648 175.952606,193.973648 
	C175.952606,202.196274 175.952606,209.900574 175.952606,217.619690 
	C184.011414,217.619690 191.722046,217.619690 199.761429,217.619690 
	C199.761429,210.444656 199.761429,203.640778 199.735275,195.898865 
z"/>
<path fill="#FEF6F7" opacity="1.000000" stroke="none" 
	d="
M268.000977,194.129898 
	C257.976715,194.079529 247.952438,194.029160 237.464783,194.053055 
	C235.130173,193.563049 232.711823,193.521622 231.536865,192.292023 
	C230.284576,190.981552 229.159454,187.933243 229.856369,186.743317 
	C230.991623,184.805038 233.575455,182.683624 235.683456,182.532761 
	C243.118484,182.000732 250.611130,182.273575 258.540771,182.138184 
	C275.693390,182.103027 292.387177,182.170807 309.539764,182.136093 
	C320.797943,182.122406 331.599976,182.106979 342.394318,182.387695 
	C344.563232,182.444077 347.261932,183.059662 348.683472,184.463425 
	C349.874023,185.639053 350.532349,189.076630 349.685364,190.200378 
	C348.317749,192.014771 345.546539,193.720490 343.321655,193.781693 
	C331.027405,194.119797 318.719055,193.944931 306.415558,193.949158 
	C304.919312,193.949677 303.423096,193.969955 301.000153,193.981110 
	C289.382629,194.030716 278.691803,194.080307 268.000977,194.129898 
z"/>
<path fill="#E12F52" opacity="1.000000" stroke="none" 
	d="
M267.906799,194.450439 
	C278.691803,194.080307 289.382629,194.030716 300.536835,194.056519 
	C299.854950,196.066254 298.993256,198.257919 297.513458,199.888763 
	C292.185547,205.760483 286.649200,211.443069 281.096130,217.514984 
	C269.976959,217.879318 258.953278,217.925766 247.465469,217.903290 
	C250.250504,214.139954 253.461563,210.411209 256.758972,206.760437 
	C260.402252,202.726669 264.124664,198.764389 267.906799,194.450439 
z"/>
<path fill="#EB444B" opacity="1.000000" stroke="none" 
	d="
M268.554199,360.546234 
	C268.009277,363.551758 267.546051,366.134094 266.926544,369.587677 
	C261.576691,368.333130 256.657715,367.179626 251.738754,366.026123 
	C251.720459,365.344391 251.702164,364.662659 251.683868,363.980927 
	C257.162933,360.496552 262.641998,357.012146 269.137115,352.881592 
	C268.904236,356.245911 268.770050,358.184509 268.554199,360.546234 
z"/>
<path fill="#EA394E" opacity="1.000000" stroke="none" 
	d="
M199.774353,369.992798 
	C199.774200,374.094330 199.774200,377.706268 199.774200,381.586670 
	C191.633545,381.586670 184.067520,381.586670 176.048492,381.586670 
	C176.048492,373.858917 176.048492,366.172516 176.048492,358.114624 
	C183.689926,358.114624 191.400192,358.114624 199.774506,358.114624 
	C199.774506,361.966949 199.774506,365.735107 199.774353,369.992798 
z"/>
<path fill="#E8314E" opacity="1.000000" stroke="none" 
	d="
M233.581818,264.304382 
	C234.247650,262.553925 235.106903,260.516907 236.544373,259.044250 
	C244.204056,251.196991 252.064484,243.545502 259.712372,235.687012 
	C261.130768,234.229568 261.894379,232.134949 262.972839,230.001068 
	C276.027344,229.581497 289.069183,229.495255 302.565125,229.538101 
	C301.874298,231.416489 300.976990,233.407852 299.543091,234.874634 
	C291.933838,242.658279 284.142761,250.264160 276.534454,258.048706 
	C275.100677,259.515717 274.209167,261.512756 273.033600,263.621155 
	C260.013885,264.077515 247.027969,264.177917 233.581818,264.304382 
z"/>
<path fill="#E23355" opacity="1.000000" stroke="none" 
	d="
M198.595596,276.032135 
	C199.384369,283.872833 199.723770,291.573608 200.077881,299.607666 
	C191.566986,299.607666 183.863205,299.607666 175.880325,299.607666 
	C175.880325,291.769257 175.880325,284.178406 175.880325,275.892242 
	C183.313812,275.892242 190.730026,275.892242 198.595596,276.032135 
z"/>
<path fill="#D1315C" opacity="1.000000" stroke="none" 
	d="
M199.748352,196.367889 
	C199.761429,203.640778 199.761429,210.444656 199.761429,217.619690 
	C191.722046,217.619690 184.011414,217.619690 175.952606,217.619690 
	C175.952606,209.900574 175.952606,202.196274 175.952606,193.973648 
	C183.384155,193.973648 190.665207,193.927887 197.943146,194.057068 
	C198.551224,194.067856 199.138397,195.257126 199.748352,196.367889 
z"/>
</svg>